# xmcd
#
# Track frame offsets:
#	150
#	20132
#	34435
#	48672
#	68012
#	86065
#	106295
#	129640
#	150282
#	165145
#	185342
#	203875
#
# Disc length: 2971 seconds
#
# Revision: 2
# Processed by: cddbd v1.5.2PL0 Copyright (c) Steve Scherf et al.
# Submitted via: audiograbber 1.83.01
#
DISCID=9b0b990c
DTITLE=VOF De Kunst - De Nette Man
DYEAR=1900
DGENRE=
TTITLE0=Lekker Zappen
TTITLE1=Jambo
TTITLE2=Filmgodinnen
TTITLE3=De Nette Man
TTITLE4=De Familie Van Der Meulen
TTITLE5=Dat Is Wat Ze Zeggen
TTITLE6=Nog Steeds
TTITLE7=1, 2, 3, 4, 5, 6, 7
TTITLE8=Alle Mensen Doen Het
TTITLE9=Anders Dan Anders
TTITLE10=Duizend En …Èn Gemiste Kansen
TTITLE11=Wat Nou
EXTD=
EXTT0=
EXTT1=
EXTT2=
EXTT3=
EXTT4=
EXTT5=
EXTT6=
EXTT7=
EXTT8=
EXTT9=
EXTT10=
EXTT11=
PLAYORDER=
